<?xml version="1.0" encoding="iso-8859-1"?>
<!-- Generator: Adobe Illustrator 19.0.0, SVG Export Plug-In . SVG Version: 6.00 Build 0)  -->
<svg version="1.1" id="Layer_1" xmlns="http://www.w3.org/2000/svg" xmlns:xlink="http://www.w3.org/1999/xlink" x="0px" y="0px"
	 viewBox="0 0 511.999 511.999" style="enable-background:new 0 0 511.999 511.999;" xml:space="preserve">
<path style="fill:#CFF09E;" d="M302.804,51.809c-5.444-5.419-11.287-10.323-17.503-14.634
	C264.592,22.76,239.752,14.73,211.515,14.73c-28.224,0-53.077,8.031-73.784,22.445c-6.886,4.787-13.32,10.283-19.267,16.435
	c-31.507,32.562-49.345,83.219-49.345,142.936c0,70.147,56.525,114.699,56.525,114.699l35.192-29.918
	c-24.045-16.275-39.851-43.803-39.851-75.024v-62.657h181.058v62.659c0,31.22-15.804,58.747-39.847,75.022l35.201,29.921
	c0,0,56.514-42.407,56.514-114.699C353.912,135.736,335.404,84.294,302.804,51.809z"/>
<g>
	<path style="fill:#507C5C;" d="M438.578,342.511c-4.808-6.562-14.026-7.985-20.588-3.177c-6.564,4.808-7.986,14.024-3.179,20.588
		c9.72,13.267,14.856,29.004,14.856,45.51c0,42.517-34.59,77.109-77.109,77.109s-77.109-34.591-77.109-77.109
		c0-38.957,29.11-71.863,67.713-76.543c8.076-0.98,13.83-8.319,12.852-16.396c-0.98-8.075-8.33-13.839-16.396-12.85
		c-3.893,0.471-7.705,1.175-11.448,2.05c17.992-20.999,40.468-56.886,40.468-105.145c0-64.44-19.689-119.548-55.447-155.179
		c-6.098-6.07-12.659-11.553-19.48-16.284C269.8,8.44,242.145,0,211.515,0s-58.286,8.44-82.193,25.082
		c-7.627,5.304-14.843,11.458-21.444,18.287C73.385,79.016,54.39,133.416,54.39,196.548c0,45.762,21.376,81.277,39.069,102.839
		c-25.207,23.571-40.591,58.322-40.591,97.716v85.673c0,8.135,6.595,14.73,14.73,14.73h158.94c8.135,0,14.73-6.595,14.73-14.73
		s-6.595-14.73-14.73-14.73H82.329v-70.943c0-31.485,11.776-58.611,31.37-76.655c1.547,1.345,2.547,2.145,2.83,2.369
		c2.678,2.111,5.899,3.161,9.116,3.161c3.4,0,6.795-1.172,9.542-3.507l27.194-23.118c14.678,7.783,31.396,12.212,49.135,12.212
		c17.742,0,34.462-4.431,49.141-12.215l26.141,22.218c-24.97,19.629-40.804,50.099-40.804,83.864
		c0,58.763,47.805,106.568,106.568,106.568S459.13,464.192,459.13,405.43C459.128,382.62,452.022,360.862,438.578,342.511z
		 M285.003,224.886c-0.355,1.405-0.75,2.797-1.183,4.174c-0.081,0.256-0.175,0.507-0.259,0.762
		c-0.346,1.059-0.713,2.111-1.105,3.152c-0.194,0.514-0.401,1.022-0.605,1.532c-0.302,0.753-0.616,1.499-0.941,2.242
		c-0.268,0.61-0.539,1.218-0.823,1.819c-0.274,0.582-0.566,1.156-0.854,1.731c-0.354,0.701-0.701,1.407-1.075,2.096
		c-0.027,0.049-0.056,0.094-0.081,0.143c-1.137,2.08-2.367,4.102-3.687,6.06c-0.016,0.024-0.031,0.047-0.046,0.071
		c-0.645,0.953-1.314,1.89-2.002,2.812c-0.065,0.087-0.13,0.175-0.194,0.262c-3.612,4.806-7.777,9.172-12.407,13
		c-0.029,0.024-0.057,0.047-0.087,0.071c-13.101,10.798-29.875,17.291-48.138,17.291c-18.268,0-35.046-6.497-48.149-17.3
		c-0.024-0.019-0.046-0.038-0.069-0.056c-4.635-3.831-8.807-8.203-12.423-13.017c-0.059-0.08-0.119-0.159-0.178-0.239
		c-0.691-0.928-1.365-1.871-2.015-2.831c-0.007-0.012-0.016-0.024-0.024-0.037c-1.342-1.987-2.592-4.042-3.746-6.157
		c-0.012-0.024-0.027-0.046-0.038-0.069c-0.379-0.695-0.729-1.408-1.086-2.118c-0.284-0.567-0.572-1.133-0.841-1.707
		c-0.287-0.607-0.56-1.221-0.831-1.837c-0.323-0.735-0.633-1.476-0.934-2.223c-0.208-0.514-0.415-1.027-0.611-1.547
		c-0.389-1.036-0.754-2.08-1.097-3.133c-0.085-0.261-0.181-0.517-0.264-0.779c-0.433-1.377-0.828-2.768-1.183-4.171
		c-0.055-0.214-0.097-0.433-0.15-0.647c-0.286-1.174-0.545-2.355-0.775-3.544c-0.077-0.398-0.144-0.797-0.215-1.196
		c-0.181-1.027-0.342-2.059-0.48-3.096c-0.06-0.448-0.119-0.896-0.171-1.345c-0.121-1.04-0.214-2.086-0.292-3.135
		c-0.031-0.417-0.072-0.832-0.096-1.252c-0.084-1.449-0.136-2.905-0.136-4.367v-47.929h151.598v47.929
		c0,1.463-0.052,2.918-0.135,4.367c-0.024,0.42-0.065,0.834-0.096,1.251c-0.078,1.049-0.171,2.095-0.292,3.135
		c-0.052,0.451-0.112,0.899-0.171,1.346c-0.138,1.038-0.299,2.071-0.482,3.098c-0.071,0.398-0.137,0.797-0.214,1.193
		c-0.23,1.192-0.49,2.374-0.776,3.55C285.1,224.458,285.057,224.674,285.003,224.886z M311.262,239.847
		c0.264-0.784,0.546-1.558,0.792-2.349c0.04-0.13,0.072-0.261,0.11-0.39c2.488-8.115,4.029-16.64,4.472-25.45
		c0.09-1.776,0.135-3.562,0.135-5.353v-62.659c0-8.135-6.596-14.73-14.73-14.73H120.986c-8.135,0-14.73,6.595-14.73,14.73v62.659
		c0,1.791,0.046,3.576,0.136,5.353c0.448,8.891,2.008,17.492,4.535,25.672c0.016,0.055,0.029,0.109,0.046,0.163
		c0.271,0.873,0.582,1.729,0.875,2.592c5.282,15.59,14.151,29.81,26.025,41.433l-11.843,10.066
		c-14.553-14.784-42.183-48.928-42.183-95.038c0-55.446,16.052-102.571,45.207-132.7c5.278-5.462,11.025-10.367,17.089-14.582
		c18.884-13.142,40.877-19.806,65.372-19.806s46.49,6.664,65.39,19.82c5.419,3.758,10.638,8.122,15.502,12.964
		C322.57,92.3,339.18,139.997,339.18,196.548c0,47.229-27.562,80.797-42.027,95.16l-11.993-10.193
		C297.095,269.833,305.99,255.53,311.262,239.847z"/>
	<path style="fill:#507C5C;" d="M389.475,391.038h-22.186v-22.186c0-8.135-6.596-14.73-14.73-14.73
		c-8.134,0-14.73,6.595-14.73,14.73v22.186h-22.186c-8.134,0-14.73,6.594-14.73,14.73s6.596,14.73,14.73,14.73h22.186v22.184
		c0,8.135,6.596,14.73,14.73,14.73c8.134,0,14.73-6.594,14.73-14.73v-22.184h22.186c8.134,0,14.73-6.594,14.73-14.73
		S397.61,391.038,389.475,391.038z"/>
</g>
<g>
</g>
<g>
</g>
<g>
</g>
<g>
</g>
<g>
</g>
<g>
</g>
<g>
</g>
<g>
</g>
<g>
</g>
<g>
</g>
<g>
</g>
<g>
</g>
<g>
</g>
<g>
</g>
<g>
</g>
</svg>
